<svg xmlns="http://www.w3.org/2000/svg" width="26.996" height="32.909" viewBox="0 0 26.996 32.909"><defs><style>.a{fill:#c68a65;}.a,.b,.c{fill-rule:evenodd;}.b{fill:#ffda8f;}.c{fill:#ffc144;}</style></defs><g transform="translate(3.857 0.643)"><path class="a" d="M140.525,422H126.642L126,427.142h16.712L142.068,422Z" transform="translate(-124.714 -395.518)"/><path class="b" d="M164.6,320.75c-.7,2.72-2.289,6.508-4.6,6.508h12.341c-2.313,0-3.9-3.788-4.6-6.508Z" transform="translate(-156.529 -300.776)"/><path class="c" d="M207.645,283.321h3.5a1.289,1.289,0,0,0,1.286-1.285,1.273,1.273,0,0,0-.143-.588,1.289,1.289,0,0,0-1.142-.7h-3.857a1.289,1.289,0,0,0-1.142.7,1.274,1.274,0,0,0-.143.588,1.289,1.289,0,0,0,1.286,1.286h.359Z" transform="translate(-199.572 -263.347)"/><path class="b" d="M132.428,64.832h3.857a1.289,1.289,0,0,1,1.142.7,8.387,8.387,0,0,0,5.285-7.768V50H126v7.761a8.387,8.387,0,0,0,5.285,7.768A1.289,1.289,0,0,1,132.428,64.832Z" transform="translate(-124.714 -47.429)"/><path class="c" d="M107.286,12.571H124A1.286,1.286,0,1,0,124,10H107.286a1.286,1.286,0,0,0,0,2.571Z" transform="translate(-106 -10)"/></g><g transform="translate(0 0)"><path d="M228.51,452h-2.675a.643.643,0,1,0,0,1.285h2.675a.643.643,0,1,0,0-1.285Z" transform="translate(-213.675 -422.947)"/><path d="M72.353,5.142H68.5v-1.4A1.928,1.928,0,0,0,67.854,0H51.142A1.928,1.928,0,0,0,50.5,3.746v1.4H46.643A.643.643,0,0,0,46,5.785v4.5a5.148,5.148,0,0,0,5.142,5.142h.543q.185.323.4.633a9.042,9.042,0,0,0,3.572,3.046A1.924,1.924,0,0,0,57.1,21.2c-.772,2.573-2.145,5.281-3.771,5.281H51.785a.643.643,0,0,0-.638.563L50.5,32.187a.643.643,0,0,0,.638.722H67.854a.643.643,0,0,0,.638-.722l-.643-5.142a.643.643,0,0,0-.638-.563H65.668c-.984,0-1.815-1.033-2.34-1.9A15.274,15.274,0,0,1,61.9,21.2a1.924,1.924,0,0,0,1.443-2.1,9.041,9.041,0,0,0,3.572-3.047c.142-.206.274-.417.4-.632h.544A5.148,5.148,0,0,0,73,10.284v-4.5a.643.643,0,0,0-.643-.643ZM47.286,10.284V6.428H50.5v4.547a8.922,8.922,0,0,0,.578,3.164A3.86,3.86,0,0,1,47.286,10.284Zm19.84,21.339H51.87l.482-3.857H66.644Zm-3.991-5.142H55.861a7.864,7.864,0,0,0,.9-1.23,17.054,17.054,0,0,0,1.656-3.992h2.156a17.061,17.061,0,0,0,1.653,3.988,7.875,7.875,0,0,0,.906,1.235Zm-1.708-6.508H57.57a.643.643,0,1,1,0-1.285h3.857a.643.643,0,1,1,0,1.285Zm1.346-2.021a1.921,1.921,0,0,0-1.346-.55H57.57a1.921,1.921,0,0,0-1.346.55,7.69,7.69,0,0,1-4.438-6.977V3.857h4.82a.643.643,0,1,0,0-1.286H51.142a.643.643,0,1,1,0-1.286H67.854a.643.643,0,1,1,0,1.286H62.39a.643.643,0,1,0,0,1.286h4.821v7.119A7.69,7.69,0,0,1,62.773,17.952Zm8.938-7.668a3.86,3.86,0,0,1-3.792,3.855,8.922,8.922,0,0,0,.578-3.164V6.428H71.71Z" transform="translate(-46 0)"/><path d="M246.639,41.286a.643.643,0,0,0,0-1.286h0a.643.643,0,1,0,0,1.286Z" transform="translate(-233.141 -37.429)"/><path d="M236.979,115.944h-.07v-4.5a.643.643,0,0,0-.964-.557l-.713.411a.643.643,0,0,0,.391,1.2v3.449h-.07a.643.643,0,1,0,0,1.286h1.425a.643.643,0,0,0,0-1.286Z" transform="translate(-222.769 -103.68)"/></g></svg>