<svg xmlns="http://www.w3.org/2000/svg" width="20.083" height="24.482" viewBox="0 0 20.083 24.482"><defs><style>.a{fill:#c68a65;}.a,.b,.c{fill-rule:evenodd;}.b{fill:#ffad95;}.c{fill:#ff764e;}</style></defs><g transform="translate(2.869 0.478)"><path class="a" d="M136.807,422H126.478L126,425.825h12.432L137.954,422Z" transform="translate(-125.044 -402.3)"/><path class="b" d="M163.423,320.75c-.524,2.023-1.7,4.841-3.423,4.841h9.181c-1.72,0-2.9-2.818-3.423-4.841Z" transform="translate(-157.418 -305.891)"/><path class="c" d="M207.223,282.664h2.6a.959.959,0,0,0,.956-.956.947.947,0,0,0-.107-.437.959.959,0,0,0-.85-.519h-2.869a.959.959,0,0,0-.85.519.948.948,0,0,0-.107.437.959.959,0,0,0,.956.956h.267Z" transform="translate(-201.218 -267.805)"/><path class="b" d="M130.782,61.033h2.869a.959.959,0,0,1,.85.519,6.239,6.239,0,0,0,3.932-5.779V50H126v5.774a6.239,6.239,0,0,0,3.932,5.779A.959.959,0,0,1,130.782,61.033Z" transform="translate(-125.044 -48.086)"/><path class="c" d="M106.956,11.912h12.432a.956.956,0,1,0,0-1.913H106.956a.956.956,0,0,0,0,1.913Z" transform="translate(-106 -9.999)"/></g><g transform="translate(0 0)"><path d="M227.662,452h-1.99a.478.478,0,1,0,0,.956h1.99a.478.478,0,0,0,0-.956Z" transform="translate(-216.626 -430.387)"/><path d="M65.6,3.825H62.736V2.787A1.434,1.434,0,0,0,62.258,0H49.825a1.434,1.434,0,0,0-.478,2.787V3.825H46.478A.478.478,0,0,0,46,4.3V7.651a3.83,3.83,0,0,0,3.825,3.825h.4q.138.24.3.471a6.727,6.727,0,0,0,2.657,2.266,1.432,1.432,0,0,0,1.074,1.559c-.575,1.914-1.6,3.929-2.805,3.929H50.3a.478.478,0,0,0-.474.419l-.478,3.825a.478.478,0,0,0,.474.537H62.258a.478.478,0,0,0,.474-.537l-.478-3.825a.478.478,0,0,0-.474-.419H60.632c-.732,0-1.35-.769-1.74-1.414a11.359,11.359,0,0,1-1.064-2.515A1.432,1.432,0,0,0,58.9,14.213a6.726,6.726,0,0,0,2.657-2.267c.106-.153.2-.31.3-.47h.4a3.83,3.83,0,0,0,3.825-3.825V4.3a.478.478,0,0,0-.478-.478ZM46.956,7.651V4.782h2.391V8.165a6.637,6.637,0,0,0,.43,2.354A2.872,2.872,0,0,1,46.956,7.651Zm14.76,15.875H50.367l.359-2.869H61.357ZM58.747,19.7H53.336a5.851,5.851,0,0,0,.672-.915,12.688,12.688,0,0,0,1.232-2.97h1.6a12.689,12.689,0,0,0,1.23,2.966A5.853,5.853,0,0,0,58.747,19.7Zm-1.271-4.841H54.607a.478.478,0,1,1,0-.956h2.869a.478.478,0,1,1,0,.956Zm1-1.5a1.429,1.429,0,0,0-1-.409H54.607a1.429,1.429,0,0,0-1,.409,5.72,5.72,0,0,1-3.3-5.191v-5.3H53.89a.478.478,0,0,0,0-.956H49.825a.478.478,0,1,1,0-.956H62.258a.478.478,0,1,1,0,.956H58.193a.478.478,0,1,0,0,.956h3.586v5.3A5.721,5.721,0,0,1,58.478,13.355Zm6.649-5.7a2.872,2.872,0,0,1-2.821,2.868,6.637,6.637,0,0,0,.43-2.354V4.782h2.391Z" transform="translate(-46 0)"/><path d="M246.475,40.955a.478.478,0,0,0,0-.956h0a.478.478,0,0,0,0,.956Z" transform="translate(-236.434 -38.086)"/><path d="M228.63,112.235a1.429,1.429,0,0,0-2.516-.933.478.478,0,1,0,.727.621.476.476,0,1,1,.69.654.478.478,0,0,0,.067.736.718.718,0,0,1-.4,1.312.7.7,0,0,1-.431-.147.478.478,0,0,0-.583.758,1.649,1.649,0,0,0,1.014.345,1.675,1.675,0,0,0,1.293-2.732A1.432,1.432,0,0,0,228.63,112.235Z" transform="translate(-217.392 -105.503)"/></g></svg>