<svg xmlns="http://www.w3.org/2000/svg" width="25.602" height="24" viewBox="0 0 25.602 24"><defs><style>.a{fill:#fff;}</style></defs><g transform="translate(0 -16.017)"><path class="a" d="M59.176,207.7H42.285A2.337,2.337,0,0,1,40,205.317V192.791a.8.8,0,1,1,1.59,0v12.526a.711.711,0,0,0,.7.725H59.176a.711.711,0,0,0,.7-.725V192.791a.8.8,0,1,1,1.59,0v12.526A2.337,2.337,0,0,1,59.176,207.7Z" transform="translate(-37.929 -167.681)"/><path class="a" d="M24.8,28.85a.784.784,0,0,1-.566-.243l-9.95-10.3a2.052,2.052,0,0,0-2.97,0l-9.95,10.3a.781.781,0,0,1-1.131,0,.849.849,0,0,1,0-1.171l9.95-10.3a3.616,3.616,0,0,1,5.233,0l9.95,10.3a.849.849,0,0,1,0,1.171.784.784,0,0,1-.566.243Z" transform="translate(0)"/><path class="a" d="M183.453,298.748h-6.625a.828.828,0,0,1-.828-.828v-7.349a2.591,2.591,0,0,1,2.588-2.588h3.105a2.591,2.591,0,0,1,2.588,2.588v7.349A.828.828,0,0,1,183.453,298.748Zm-5.8-1.656h4.969v-6.521a.933.933,0,0,0-.932-.932h-3.105a.933.933,0,0,0-.932.932Z" transform="translate(-167.339 -258.731)"/></g></svg>