<svg xmlns="http://www.w3.org/2000/svg" width="20.929" height="30.5" viewBox="0 0 20.929 30.5"><defs><style>.a{fill:#fff;}</style></defs><g transform="translate(-80.333)"><path class="a" d="M338.295,213.683a.894.894,0,0,0-.894.894v3.542a.894.894,0,1,0,1.787,0v-3.542A.894.894,0,0,0,338.295,213.683Z" transform="translate(-241.754 -200.954)"/><path class="a" d="M145.494,213.683a.894.894,0,0,0-.894.894v3.542a.894.894,0,1,0,1.787,0v-3.542A.894.894,0,0,0,145.494,213.683Z" transform="translate(-60.439 -200.954)"/><path class="a" d="M209.76,194.4a.894.894,0,0,0-.894.894v6.126a.894.894,0,0,0,1.787,0V195.3A.894.894,0,0,0,209.76,194.4Z" transform="translate(-120.876 -182.821)"/><path class="a" d="M100.625,10.566l-.347-.1a8.892,8.892,0,0,0-6.933-8c-.185-.041-1.655-.175-1.655-1.566a.894.894,0,0,0-1.787,0c0,1.41-1.521,1.535-1.655,1.565a8.9,8.9,0,0,0-6.933,8l-.347.1a.893.893,0,0,0-.637.856v7.657a.893.893,0,0,0,.494.8l3.3,1.652a4.876,4.876,0,0,1-1.909,3.342L80.691,26.02a.894.894,0,0,0,.279,1.571l9.571,2.871a.893.893,0,0,0,.514,0l9.571-2.871a.894.894,0,0,0,.279-1.571l-1.531-1.148a4.875,4.875,0,0,1-1.909-3.342l3.3-1.652a.893.893,0,0,0,.494-.8V11.421a.894.894,0,0,0-.637-.856ZM88.638,4.2A3.686,3.686,0,0,0,90.8,3.151,3.692,3.692,0,0,0,92.958,4.2a7.1,7.1,0,0,1,5.451,5.7L91.054,7.694a.893.893,0,0,0-.514,0L83.186,9.9a7.1,7.1,0,0,1,5.451-5.7Zm9.779,22.185L90.8,28.674l-7.619-2.286A6.686,6.686,0,0,0,85.8,22.366l4.595,2.3a.894.894,0,0,0,.8,0l4.595-2.3A6.684,6.684,0,0,0,98.416,26.388Zm1.059-7.862L90.8,22.865,82.12,18.526v-6.44l8.677-2.6,8.677,2.6Z" transform="translate(0 0)"/><path class="a" d="M274.028,194.4a.894.894,0,0,0-.894.894v6.126a.894.894,0,0,0,1.787,0V195.3A.894.894,0,0,0,274.028,194.4Z" transform="translate(-181.316 -182.821)"/></g></svg>