<svg xmlns="http://www.w3.org/2000/svg" width="34.31" height="50" viewBox="0 0 34.31 50"><defs><style>.a{fill:#575c8e;}</style></defs><g transform="translate(-80.333 0)"><path class="a" d="M338.295,213.683a.894.894,0,0,0-.894.894v3.542a.894.894,0,1,0,1.787,0v-3.542A.894.894,0,0,0,338.295,213.683Z" transform="translate(-231.05 -191.093)"/><path class="a" d="M145.494,213.683a.894.894,0,0,0-.894.894v3.542a.894.894,0,1,0,1.787,0v-3.542A.894.894,0,0,0,145.494,213.683Z" transform="translate(-57.762 -191.093)"/><path class="a" d="M209.76,194.4a.894.894,0,0,0-.894.894v6.126a.894.894,0,0,0,1.787,0V195.3A.894.894,0,0,0,209.76,194.4Z" transform="translate(-115.524 -172.824)"/><path class="a" d="M113.6,17.321l-.568-.171A14.578,14.578,0,0,0,101.666,4.031c-.3-.068-2.713-.287-2.713-2.567a1.465,1.465,0,1,0-2.93,0c0,2.312-2.494,2.517-2.713,2.566A14.585,14.585,0,0,0,81.945,17.15l-.568.171a1.465,1.465,0,0,0-1.044,1.4V31.276a1.465,1.465,0,0,0,.81,1.31l5.416,2.708a7.994,7.994,0,0,1-3.13,5.479l-2.51,1.883a1.465,1.465,0,0,0,.458,2.575l15.69,4.707a1.464,1.464,0,0,0,.842,0l15.69-4.707a1.465,1.465,0,0,0,.457-2.575l-2.51-1.882a7.991,7.991,0,0,1-3.129-5.479l5.416-2.708a1.465,1.465,0,0,0,.81-1.31V18.724a1.465,1.465,0,0,0-1.044-1.4ZM93.947,6.891a6.043,6.043,0,0,0,3.541-1.724,6.053,6.053,0,0,0,3.541,1.724,11.642,11.642,0,0,1,8.937,9.34L97.909,12.614a1.464,1.464,0,0,0-.842,0L85.01,16.231a11.641,11.641,0,0,1,8.937-9.34Zm16.031,36.369-12.49,3.747L85,43.259a10.96,10.96,0,0,0,4.3-6.594l7.533,3.766a1.465,1.465,0,0,0,1.31,0l7.532-3.766A10.958,10.958,0,0,0,109.978,43.259Zm1.736-12.888L97.488,37.483,83.263,30.371V19.814l14.225-4.268,14.225,4.268Z" transform="translate(0 0)"/><path class="a" d="M274.028,194.4a.894.894,0,0,0-.894.894v6.126a.894.894,0,0,0,1.787,0V195.3A.894.894,0,0,0,274.028,194.4Z" transform="translate(-173.287 -172.824)"/></g></svg>