<svg xmlns="http://www.w3.org/2000/svg" width="30" height="29.984" viewBox="0 0 30 29.984"><defs><style>.a{fill:#fff;}</style></defs><g transform="translate(26 -0.097)"><g transform="translate(-26 0.097)"><path class="a" d="M29.308,25.968l-.027-.027-1.155-1.129-2.107-2.12L24.458,21.13l1.385-1.385a.656.656,0,0,0,0-.925l-1.5-1.5a.656.656,0,0,0-.925,0l-.538.538-2.212-2.474L29.439,7.54a.656.656,0,0,0,.217-.459L29.97.787A.653.653,0,0,0,29.281.1L22.988.407a.656.656,0,0,0-.459.217L15,9.062,7.462.643A.656.656,0,0,0,7,.426L.709.118A.653.653,0,0,0,.02.807L.335,7.1a.656.656,0,0,0,.217.459l8.78,7.875-2.2,2.435-.538-.538a.656.656,0,0,0-.925,0l-1.5,1.5a.656.656,0,0,0,0,.925l1.385,1.385L3.984,22.692.7,25.973a2.406,2.406,0,0,0,3.4,3.406l4.817-4.817L10.3,25.947a.656.656,0,0,0,.925,0l1.5-1.5a.656.656,0,0,0,0-.925l-.512-.571L15,20.468l2.789,2.487-.538.538a.656.656,0,0,0,0,.925l1.5,1.5a.656.656,0,0,0,.925,0l1.385-1.385,1.562,1.562L24.734,28.2l1.142,1.142a2.408,2.408,0,1,0,3.433-3.379Zm-7.37-7.174-1.155,1.155-2.467-2.467,1.358-1.214ZM1.595,6.739l-.262-5.3,5.3.262,7.455,8.334-1.522,1.7L9.8,8.983a.656.656,0,0,0-.925.925l2.841,2.815-1.509,1.7ZM3.163,28.395a1.089,1.089,0,0,1-.774.322,1.1,1.1,0,0,1-.735-1.824l.656-.656,1.536,1.516Zm1.6-1.6L3.255,25.278,4.443,24.09l1.549,1.549Zm2.12-2.12L5.335,23.125l1.135-1.063,1.549,1.549Zm3.872-.177L9.378,23.119,6.9,20.645,5.552,19.286l.564-.564,5.25,5.25Zm.492-2.5-1.155-1.155L21.052,9.882a.656.656,0,1,0-.925-.925L9.168,19.916,8.013,18.761,10.7,15.756,23.342,1.712l5.3-.262-.262,5.3-9.069,8.1Zm4.7-2.448,1.411-1.188,2.513,2.513-1.155,1.155Zm4.594,3.563L19.208,24.53l-.564-.564,5.25-5.25.564.564-1.385,1.385Zm1.391.466,1.6-1.516,1.1,1.1L23.08,24.707Zm3.216,3.216-1.188-1.188,1.549-1.549L26.7,25.245Zm3.2,1.634-.052-.033a1.122,1.122,0,0,1-1.549,0l-.656-.656,1.582-1.5.656.656A1.1,1.1,0,0,1,28.349,28.428Z" transform="translate(0 -0.097)"/></g></g></svg>