<svg xmlns="http://www.w3.org/2000/svg" width="50.026" height="50" viewBox="0 0 50.026 50"><defs><style>.a{fill:#575c8e;}</style></defs><g transform="translate(0 -0.097)"><g transform="translate(0 0.097)"><path class="a" d="M48.873,43.238l-.045-.045L46.9,41.31l-3.513-3.535-2.6-2.6,2.309-2.309a1.094,1.094,0,0,0,0-1.543l-2.5-2.5a1.094,1.094,0,0,0-1.543,0l-.9.9L34.471,25.6,49.09,12.508a1.1,1.1,0,0,0,.361-.766l.525-10.494A1.089,1.089,0,0,0,48.828.1L38.333.613a1.1,1.1,0,0,0-.766.361L25.016,15.047,12.442,1.007a1.1,1.1,0,0,0-.766-.361L1.182.131A1.089,1.089,0,0,0,.033,1.281L.558,11.775a1.1,1.1,0,0,0,.361.766L15.561,25.672l-3.677,4.06-.9-.9a1.094,1.094,0,0,0-1.543,0L6.949,31.33a1.094,1.094,0,0,0,0,1.543l2.309,2.309L6.643,37.775,1.171,43.247A4.012,4.012,0,0,0,6.84,48.926l8.032-8.032L17.181,43.2a1.094,1.094,0,0,0,1.543,0l2.5-2.495a1.094,1.094,0,0,0,0-1.543l-.854-.952,4.651-4.147,4.651,4.147-.9.9a1.094,1.094,0,0,0,0,1.543l2.5,2.495a1.094,1.094,0,0,0,1.543,0l2.309-2.309,2.6,2.6,3.524,3.524,1.9,1.9a4.016,4.016,0,1,0,5.725-5.634ZM36.583,31.275,34.657,33.2l-4.115-4.115,2.265-2.024ZM2.659,11.173,2.222,2.342l8.831.438,12.431,13.9-2.539,2.834-4.6-4.6a1.094,1.094,0,0,0-1.543,1.543l4.738,4.695-2.517,2.834ZM5.275,47.285a1.817,1.817,0,0,1-1.291.536,1.828,1.828,0,0,1-1.226-3.042l1.094-1.094,2.561,2.528Zm2.67-2.67L5.428,42.087l1.981-1.981,2.583,2.583Zm3.535-3.535L8.9,38.5l1.893-1.773,2.583,2.583Zm6.456-.3-2.3-2.3-4.126-4.126L9.258,32.1l.941-.941,8.754,8.754Zm.821-4.169L16.83,34.689,35.105,16.415a1.094,1.094,0,1,0-1.543-1.543L15.287,33.146l-1.926-1.926,4.487-5.012L38.924,2.791l8.831-.438-.438,8.831L32.194,24.7Zm7.835-4.082,2.353-1.981,4.191,4.191L31.21,36.67Zm7.66,5.942L32.03,40.839l-.941-.941,8.754-8.754.941.941-2.309,2.309Zm2.32.777,2.67-2.528,1.827,1.827-2.583,2.583Zm5.362,5.362-1.981-1.981,2.583-2.583,1.981,1.981Zm5.34,2.725-.088-.055a1.871,1.871,0,0,1-2.583,0l-1.094-1.094,2.637-2.506,1.094,1.094A1.828,1.828,0,0,1,47.274,47.34Z" transform="translate(0 -0.097)"/></g></g></svg>